<svg width="21" height="21" viewBox="0 0 21 21" fill="none" xmlns="http://www.w3.org/2000/svg">
<path fill-rule="evenodd" clip-rule="evenodd" d="M0.496094 4.67798C0.496094 2.46884 2.28695 0.677979 4.49609 0.677979H16.4961C18.7052 0.677979 20.4961 2.46884 20.4961 4.67798V16.678C20.4961 18.8871 18.7052 20.678 16.4961 20.678H4.49609C2.28695 20.678 0.496094 18.8871 0.496094 16.678V4.67798ZM3.49609 9.17798C3.49609 8.90184 3.71995 8.67798 3.99609 8.67798H14.9961C15.2722 8.67798 15.4961 8.90184 15.4961 9.17798V9.67798C15.4961 9.95412 15.2722 10.178 14.9961 10.178H3.99609C3.71995 10.178 3.49609 9.95412 3.49609 9.67798V9.17798ZM8.28174 11.178C8.0056 11.178 7.78174 11.4018 7.78174 11.678V12.178C7.78174 12.4541 8.0056 12.678 8.28174 12.678H14.996C15.2722 12.678 15.496 12.4541 15.496 12.178V11.678C15.496 11.4018 15.2722 11.178 14.996 11.178H8.28174Z" fill="white" style="fill:white;fill-opacity:1;"/>
<circle cx="17.2461" cy="11.928" r="0.75" fill="#DC6046" style="fill:#DC6046;fill:color(display-p3 0.8627 0.3765 0.2745);fill-opacity:1;"/>
</svg>
