<svg width="20" height="21" viewBox="0 0 20 21" fill="none" xmlns="http://www.w3.org/2000/svg">
<path fill-rule="evenodd" clip-rule="evenodd" d="M0 4.67798C0 2.46884 1.79086 0.677979 4 0.677979H16C18.2091 0.677979 20 2.46884 20 4.67798V16.678C20 18.8871 18.2091 20.678 16 20.678H4C1.79086 20.678 0 18.8871 0 16.678V4.67798ZM3 9.17798C3 8.90184 3.22386 8.67798 3.5 8.67798H14.5C14.7761 8.67798 15 8.90184 15 9.17798V9.67798C15 9.95412 14.7761 10.178 14.5 10.178H3.5C3.22386 10.178 3 9.95412 3 9.67798V9.17798ZM7.78564 11.178C7.5095 11.178 7.28564 11.4018 7.28564 11.678V12.178C7.28564 12.4541 7.5095 12.678 7.78565 12.678H14.4999C14.7761 12.678 14.9999 12.4541 14.9999 12.178V11.678C14.9999 11.4018 14.7761 11.178 14.4999 11.178H7.78564Z" fill="#101010" style="fill:#101010;fill:color(display-p3 0.0642 0.0642 0.0642);fill-opacity:1;"/>
<circle cx="16.75" cy="11.928" r="0.75" fill="#DC6046" style="fill:#DC6046;fill:color(display-p3 0.8627 0.3765 0.2745);fill-opacity:1;"/>
</svg>
