<svg width="20" height="20" viewBox="0 0 20 20" fill="none" xmlns="http://www.w3.org/2000/svg">
<path fill-rule="evenodd" clip-rule="evenodd" d="M6.95024 6.70707C6.55971 6.31655 5.92655 6.31655 5.53602 6.70707L2.73345 9.50964C2.72467 9.51782 2.716 9.52619 2.70744 9.53474C2.46181 9.78038 2.37068 10.122 2.43404 10.4389C2.47133 10.6261 2.56251 10.8046 2.7076 10.9497C2.71458 10.9567 2.72164 10.9636 2.72878 10.9703L5.53587 13.7774C5.9264 14.1679 6.55956 14.1679 6.95008 13.7774C7.34061 13.3869 7.34061 12.7537 6.95008 12.3632L4.82922 10.2423L6.95024 8.12129C7.34076 7.73076 7.34076 7.0976 6.95024 6.70707Z" fill="#F4F4F4" style="fill:#F4F4F4;fill:color(display-p3 0.9569 0.9569 0.9569);fill-opacity:1;"/>
<path fill-rule="evenodd" clip-rule="evenodd" d="M13.5356 6.70707C13.9261 6.31655 14.5593 6.31655 14.9498 6.70707L17.7524 9.50964C17.7612 9.51782 17.7698 9.52619 17.7784 9.53474C18.024 9.78038 18.1152 10.122 18.0518 10.4389C18.0145 10.6261 17.9233 10.8046 17.7782 10.9497C17.7713 10.9567 17.7642 10.9636 17.7571 10.9703L14.95 13.7774C14.5594 14.1679 13.9263 14.1679 13.5358 13.7774C13.1452 13.3869 13.1452 12.7537 13.5358 12.3632L15.6566 10.2423L13.5356 8.12129C13.1451 7.73076 13.1451 7.0976 13.5356 6.70707Z" fill="#F4F4F4" style="fill:#F4F4F4;fill:color(display-p3 0.9569 0.9569 0.9569);fill-opacity:1;"/>
</svg>
