<svg width="20" height="20" viewBox="0 0 20 20" fill="none" xmlns="http://www.w3.org/2000/svg">
<rect width="20" height="20" rx="3.63636" fill="#3C3C43" fill-opacity="0.3"/>
<rect x="1.81836" y="5.45508" width="16.3636" height="12.7273" rx="1.81818" fill="white"/>
<rect x="7.27295" y="7.27148" width="1.81818" height="1.81818" rx="0.454545" fill="#3C3C43" fill-opacity="0.3"/>
<rect x="3.63672" y="10.9082" width="1.81818" height="1.81818" rx="0.454545" fill="#3C3C43" fill-opacity="0.3"/>
<rect x="3.63672" y="14.5449" width="1.81818" height="1.81818" rx="0.454545" fill="#3C3C43" fill-opacity="0.3"/>
<rect x="14.5459" y="10.9082" width="1.81818" height="1.81818" rx="0.454545" fill="#3C3C43" fill-opacity="0.3"/>
<rect x="10.9097" y="10.9082" width="1.81818" height="1.81818" rx="0.454545" fill="#3C3C43" fill-opacity="0.3"/>
<rect x="10.9097" y="7.27148" width="1.81818" height="1.81818" rx="0.454545" fill="#3C3C43" fill-opacity="0.3"/>
<rect x="7.27295" y="10.9082" width="1.81818" height="1.81818" rx="0.454545" fill="#3C3C43" fill-opacity="0.3"/>
<rect x="7.27295" y="14.5449" width="1.81818" height="1.81818" rx="0.454545" fill="#3C3C43" fill-opacity="0.3"/>
<rect x="10.9097" y="14.5449" width="1.81818" height="1.81818" rx="0.454545" fill="#3C3C43" fill-opacity="0.3"/>
<rect x="14.5459" y="7.27148" width="1.81818" height="1.81818" rx="0.454545" fill="#3C3C43" fill-opacity="0.3"/>
</svg>
