<svg width="20" height="21" viewBox="0 0 20 21" fill="none" xmlns="http://www.w3.org/2000/svg">
<path fill-rule="evenodd" clip-rule="evenodd" d="M3.63636 0.322021C1.62806 0.322021 0 1.95008 0 3.95839V16.6857C0 18.694 1.62806 20.322 3.63636 20.322H16.3636C18.3719 20.322 20 18.694 20 16.6857V3.95839C20 1.95008 18.3719 0.322021 16.3636 0.322021H3.63636ZM3.63654 5.7771C2.63239 5.7771 1.81836 6.59113 1.81836 7.59528V16.6862C1.81836 17.6903 2.63239 18.5044 3.63654 18.5044H16.3638C17.368 18.5044 18.182 17.6903 18.182 16.6862V7.59528C18.182 6.59113 17.368 5.7771 16.3638 5.7771H3.63654Z" fill="#3C3C43" fill-opacity="0.3" style="fill:#3C3C43;fill:color(display-p3 0.2353 0.2353 0.2627);fill-opacity:0.3;"/>
<path d="M7.27308 8.04805C7.27308 7.79701 7.47659 7.59351 7.72763 7.59351H8.63672C8.88776 7.59351 9.09126 7.79701 9.09126 8.04805V8.95714C9.09126 9.20818 8.88776 9.41169 8.63672 9.41169H7.72763C7.47659 9.41169 7.27308 9.20818 7.27308 8.95714V8.04805Z" fill="#3C3C43" fill-opacity="0.3" style="fill:#3C3C43;fill:color(display-p3 0.2353 0.2353 0.2627);fill-opacity:0.3;"/>
<path d="M3.63672 11.6848C3.63672 11.4337 3.84023 11.2302 4.09126 11.2302H5.00035C5.25139 11.2302 5.4549 11.4337 5.4549 11.6848V12.5939C5.4549 12.8449 5.25139 13.0484 5.00036 13.0484H4.09126C3.84023 13.0484 3.63672 12.8449 3.63672 12.5939V11.6848Z" fill="#3C3C43" fill-opacity="0.3" style="fill:#3C3C43;fill:color(display-p3 0.2353 0.2353 0.2627);fill-opacity:0.3;"/>
<path d="M3.63672 15.3215C3.63672 15.0705 3.84023 14.8669 4.09126 14.8669H5.00035C5.25139 14.8669 5.4549 15.0704 5.4549 15.3215V16.2306C5.4549 16.4816 5.25139 16.6851 5.00036 16.6851H4.09126C3.84023 16.6851 3.63672 16.4816 3.63672 16.2306V15.3215Z" fill="#3C3C43" fill-opacity="0.3" style="fill:#3C3C43;fill:color(display-p3 0.2353 0.2353 0.2627);fill-opacity:0.3;"/>
<path d="M14.5459 11.6848C14.5459 11.4337 14.7494 11.2302 15.0004 11.2302H15.9095C16.1606 11.2302 16.3641 11.4337 16.3641 11.6848V12.5939C16.3641 12.8449 16.1606 13.0484 15.9095 13.0484H15.0004C14.7494 13.0484 14.5459 12.8449 14.5459 12.5939V11.6848Z" fill="#3C3C43" fill-opacity="0.3" style="fill:#3C3C43;fill:color(display-p3 0.2353 0.2353 0.2627);fill-opacity:0.3;"/>
<path d="M10.9097 11.6848C10.9097 11.4337 11.1132 11.2302 11.3642 11.2302H12.2733C12.5243 11.2302 12.7278 11.4337 12.7278 11.6848V12.5939C12.7278 12.8449 12.5243 13.0484 12.2733 13.0484H11.3642C11.1132 13.0484 10.9097 12.8449 10.9097 12.5939V11.6848Z" fill="#3C3C43" fill-opacity="0.3" style="fill:#3C3C43;fill:color(display-p3 0.2353 0.2353 0.2627);fill-opacity:0.3;"/>
<path d="M10.9094 8.04805C10.9094 7.79701 11.113 7.59351 11.364 7.59351H12.2731C12.5241 7.59351 12.7276 7.79701 12.7276 8.04805V8.95714C12.7276 9.20818 12.5241 9.41169 12.2731 9.41169H11.364C11.113 9.41169 10.9094 9.20818 10.9094 8.95714V8.04805Z" fill="#3C3C43" fill-opacity="0.3" style="fill:#3C3C43;fill:color(display-p3 0.2353 0.2353 0.2627);fill-opacity:0.3;"/>
<path d="M7.27295 11.6848C7.27295 11.4337 7.47646 11.2302 7.72749 11.2302H8.63659C8.88762 11.2302 9.09113 11.4337 9.09113 11.6848V12.5939C9.09113 12.8449 8.88762 13.0484 8.63659 13.0484H7.7275C7.47646 13.0484 7.27295 12.8449 7.27295 12.5939V11.6848Z" fill="#3C3C43" fill-opacity="0.3" style="fill:#3C3C43;fill:color(display-p3 0.2353 0.2353 0.2627);fill-opacity:0.3;"/>
<path d="M7.27295 15.3215C7.27295 15.0705 7.47646 14.8669 7.72749 14.8669H8.63659C8.88762 14.8669 9.09113 15.0704 9.09113 15.3215V16.2306C9.09113 16.4816 8.88762 16.6851 8.63659 16.6851H7.7275C7.47646 16.6851 7.27295 16.4816 7.27295 16.2306V15.3215Z" fill="#3C3C43" fill-opacity="0.3" style="fill:#3C3C43;fill:color(display-p3 0.2353 0.2353 0.2627);fill-opacity:0.3;"/>
<path d="M10.9097 15.3215C10.9097 15.0705 11.1132 14.8669 11.3642 14.8669H12.2733C12.5243 14.8669 12.7278 15.0704 12.7278 15.3215V16.2306C12.7278 16.4816 12.5243 16.6851 12.2733 16.6851H11.3642C11.1132 16.6851 10.9097 16.4816 10.9097 16.2306V15.3215Z" fill="#3C3C43" fill-opacity="0.3" style="fill:#3C3C43;fill:color(display-p3 0.2353 0.2353 0.2627);fill-opacity:0.3;"/>
<path d="M14.5458 8.04805C14.5458 7.79701 14.7493 7.59351 15.0004 7.59351H15.9094C16.1605 7.59351 16.364 7.79701 16.364 8.04805V8.95714C16.364 9.20818 16.1605 9.41169 15.9094 9.41169H15.0004C14.7493 9.41169 14.5458 9.20818 14.5458 8.95714V8.04805Z" fill="#3C3C43" fill-opacity="0.3" style="fill:#3C3C43;fill:color(display-p3 0.2353 0.2353 0.2627);fill-opacity:0.3;"/>
</svg>
