<svg width="100" height="100" viewBox="0 0 100 100" fill="none" xmlns="http://www.w3.org/2000/svg">
<rect width="100" height="100" rx="20" fill="#B0D9FF"/>
<path d="M43.0512 53.25C43.2178 53.25 43.3845 53.35 43.5512 53.55C43.7512 53.75 43.9178 53.9833 44.0512 54.25C44.1845 54.5167 44.2845 54.8167 44.3512 55.15C44.4512 55.45 44.5012 55.7 44.5012 55.9C44.5012 56.2667 44.3178 56.5833 43.9512 56.85C43.6178 57.1167 43.0178 57.25 42.1512 57.25C41.8845 57.25 41.6012 57.1667 41.3012 57C41.0345 56.8333 40.9012 56.5833 40.9012 56.25C40.9012 56.15 40.9678 55.95 41.1012 55.65C41.2678 55.3167 41.4512 54.9833 41.6512 54.65C41.8845 54.2833 42.1178 53.9667 42.3512 53.7C42.6178 53.4 42.8512 53.25 43.0512 53.25ZM43.7512 47.05C43.7512 47.25 43.6512 47.45 43.4512 47.65C43.2512 47.8167 43.0178 47.9833 42.7512 48.15C42.5178 48.2833 42.2845 48.4 42.0512 48.5C41.8178 48.5667 41.6845 48.6 41.6512 48.6C41.3512 48.6 41.1178 48.5333 40.9512 48.4C40.8178 48.2333 40.7012 48.0667 40.6012 47.9C40.5345 47.7 40.4845 47.5167 40.4512 47.35C40.4512 47.1833 40.4512 47.0667 40.4512 47C40.4512 46.8667 40.4845 46.7 40.5512 46.5C40.6178 46.2667 40.7178 46.05 40.8512 45.85C40.9845 45.65 41.1345 45.4833 41.3012 45.35C41.5012 45.1833 41.7178 45.1 41.9512 45.1C42.3845 45.1 42.7845 45.2833 43.1512 45.65C43.5512 46.0167 43.7512 46.4833 43.7512 47.05ZM59.7168 36.85C59.9168 36.9167 60.0168 37.1167 60.0168 37.45C60.0168 37.5167 60.0001 37.5833 59.9668 37.65C59.9668 37.6833 59.9668 37.7167 59.9668 37.75V37.85C59.2001 39.75 58.4668 41.8667 57.7668 44.2C57.1001 46.5333 56.3668 48.8833 55.5668 51.25C54.7668 53.6167 53.8835 55.9167 52.9168 58.15C51.9835 60.3833 50.8835 62.3333 49.6168 64C49.3501 64.3667 49.1835 64.55 49.1168 64.55C49.0168 64.55 48.9001 64.3667 48.7668 64C48.6668 63.6667 48.6168 63.4667 48.6168 63.4C48.6168 63.3333 49.0835 62.1167 50.0168 59.75C50.4501 58.65 50.9168 57.3833 51.4168 55.95C51.9501 54.5167 52.4835 53.0167 53.0168 51.45C53.5835 49.8833 54.1168 48.3333 54.6168 46.8C55.1501 45.2333 55.6501 43.7833 56.1168 42.45C56.3835 41.65 56.6668 40.9 56.9668 40.2C57.2668 39.4667 57.5501 38.8333 57.8168 38.3C58.0835 37.7667 58.3168 37.35 58.5168 37.05C58.7501 36.75 58.9335 36.6 59.0668 36.6C59.1335 36.6 59.2168 36.6333 59.3168 36.7C59.4501 36.7333 59.5835 36.7833 59.7168 36.85Z" fill="white"/>
</svg>
