<svg width="20" height="20" viewBox="0 0 20 20" fill="none" xmlns="http://www.w3.org/2000/svg">
<path fill-rule="evenodd" clip-rule="evenodd" d="M4 0C1.79086 0 0 1.79086 0 4V16C0 18.2091 1.79086 20 4 20H16C18.2091 20 20 18.2091 20 16V4C20 1.79086 18.2091 0 16 0H4ZM3.5 8C3.22385 8 3 8.22385 3 8.5V9C3 9.27615 3.22385 9.5 3.5 9.5H14.5C14.7762 9.5 15 9.27615 15 9V8.5C15 8.22385 14.7762 8 14.5 8H3.5ZM7.28564 11C7.28564 10.7238 7.50949 10.5 7.78564 10.5H14.4999C14.7761 10.5 14.9999 10.7238 14.9999 11V11.5C14.9999 11.7762 14.7761 12 14.4999 12H7.78564C7.50949 12 7.28564 11.7762 7.28564 11.5V11ZM16.75 12C17.1642 12 17.5 11.6642 17.5 11.25C17.5 10.8358 17.1642 10.5 16.75 10.5C16.3358 10.5 16 10.8358 16 11.25C16 11.6642 16.3358 12 16.75 12Z" fill="#3C3C43" fill-opacity="0.3" style="fill:#3C3C43;fill:color(display-p3 0.2353 0.2353 0.2627);fill-opacity:0.3;"/>
</svg>
