<svg width="21" height="20" viewBox="0 0 21 20" fill="none" xmlns="http://www.w3.org/2000/svg">
<path fill-rule="evenodd" clip-rule="evenodd" d="M4.49609 0C2.28695 0 0.496094 1.79086 0.496094 4V16C0.496094 18.2091 2.28695 20 4.49609 20H16.4961C18.7052 20 20.4961 18.2091 20.4961 16V4C20.4961 1.79086 18.7052 0 16.4961 0H4.49609ZM3.99609 8C3.71995 8 3.49609 8.22386 3.49609 8.5V9C3.49609 9.27614 3.71995 9.5 3.99609 9.5H14.9961C15.2722 9.5 15.4961 9.27614 15.4961 9V8.5C15.4961 8.22386 15.2722 8 14.9961 8H3.99609ZM7.78174 11C7.78174 10.7239 8.0056 10.5 8.28174 10.5H14.996C15.2722 10.5 15.496 10.7239 15.496 11V11.5C15.496 11.7761 15.2722 12 14.996 12H8.28174C8.0056 12 7.78174 11.7761 7.78174 11.5V11ZM17.2461 12C17.6603 12 17.9961 11.6642 17.9961 11.25C17.9961 10.8358 17.6603 10.5 17.2461 10.5C16.8319 10.5 16.4961 10.8358 16.4961 11.25C16.4961 11.6642 16.8319 12 17.2461 12Z" fill="#EBEBF5" fill-opacity="0.3" style="fill:#EBEBF5;fill:color(display-p3 0.9216 0.9216 0.9608);fill-opacity:0.3;"/>
</svg>
