<svg width="100" height="100" viewBox="0 0 100 100" fill="none" xmlns="http://www.w3.org/2000/svg">
<rect width="100" height="100" rx="20" fill="#E1BAFF"/>
<path d="M40.9271 53.25C41.0938 53.25 41.2605 53.35 41.4271 53.55C41.6271 53.75 41.7938 53.9833 41.9271 54.25C42.0605 54.5167 42.1605 54.8167 42.2271 55.15C42.3271 55.45 42.3771 55.7 42.3771 55.9C42.3771 56.2667 42.1938 56.5833 41.8271 56.85C41.4938 57.1167 40.8938 57.25 40.0271 57.25C39.7605 57.25 39.4771 57.1667 39.1771 57C38.9105 56.8333 38.7771 56.5833 38.7771 56.25C38.7771 56.15 38.8438 55.95 38.9771 55.65C39.1438 55.3167 39.3271 54.9833 39.5271 54.65C39.7605 54.2833 39.9938 53.9667 40.2271 53.7C40.4938 53.4 40.7271 53.25 40.9271 53.25ZM41.6271 47.05C41.6271 47.25 41.5271 47.45 41.3271 47.65C41.1271 47.8167 40.8938 47.9833 40.6271 48.15C40.3938 48.2833 40.1605 48.4 39.9271 48.5C39.6938 48.5667 39.5605 48.6 39.5271 48.6C39.2271 48.6 38.9938 48.5333 38.8271 48.4C38.6938 48.2333 38.5771 48.0667 38.4771 47.9C38.4105 47.7 38.3605 47.5167 38.3271 47.35C38.3271 47.1833 38.3271 47.0667 38.3271 47C38.3271 46.8667 38.3605 46.7 38.4271 46.5C38.4938 46.2667 38.5938 46.05 38.7271 45.85C38.8605 45.65 39.0105 45.4833 39.1771 45.35C39.3771 45.1833 39.5938 45.1 39.8271 45.1C40.2605 45.1 40.6605 45.2833 41.0271 45.65C41.4271 46.0167 41.6271 46.4833 41.6271 47.05ZM50.9428 46C50.9428 46.6 50.8094 47.15 50.5428 47.65C50.3094 48.15 50.0261 48.5833 49.6928 48.95C49.3594 49.2833 49.0428 49.55 48.7428 49.75C48.4428 49.95 48.2261 50.05 48.0928 50.05C47.9928 50.05 47.8594 49.9833 47.6928 49.85C47.5594 49.6833 47.4928 49.5 47.4928 49.3C47.4928 49.2667 47.5594 49.15 47.6928 48.95C47.8261 48.75 47.9761 48.5167 48.1428 48.25C48.3428 47.95 48.5094 47.6167 48.6428 47.25C48.7761 46.85 48.8428 46.4333 48.8428 46C48.8428 45.1333 48.7594 44.3667 48.5928 43.7C48.4261 43 48.2094 42.3167 47.9428 41.65C47.9094 41.55 47.8594 41.4333 47.7928 41.3C47.7594 41.1667 47.7428 41.0667 47.7428 41C47.7428 40.7667 47.8094 40.6167 47.9428 40.55C48.1094 40.4833 48.2761 40.45 48.4428 40.45C48.6761 40.45 48.9428 40.6667 49.2428 41.1C49.5428 41.5 49.8094 41.9833 50.0428 42.55C50.3094 43.1167 50.5261 43.7333 50.6928 44.4C50.8594 45.0333 50.9428 45.5667 50.9428 46ZM61.6088 37.05C61.7088 37.05 61.9588 37.0833 62.3588 37.15C62.7588 37.2167 62.9588 37.3333 62.9588 37.5C62.9588 37.5667 62.8755 37.6833 62.7088 37.85C62.5421 38.0167 62.4255 38.1333 62.3588 38.2C61.6921 38.8667 61.0421 39.75 60.4088 40.85C59.8088 41.9167 59.2755 43.05 58.8088 44.25C58.3421 45.4167 57.9588 46.5833 57.6588 47.75C57.3921 48.8833 57.2588 49.8667 57.2588 50.7C57.2588 51.5667 57.3421 52.45 57.5088 53.35C57.7088 54.25 57.9588 55.0667 58.2588 55.8C58.5921 56.5333 58.9588 57.1333 59.3588 57.6C59.7921 58.0667 60.2421 58.3 60.7088 58.3C60.8088 58.3 60.9255 58.25 61.0588 58.15C61.1921 58.0167 61.3255 57.9333 61.4588 57.9C61.6255 57.9 61.7421 58.0167 61.8088 58.25C61.9088 58.4833 61.9588 58.7167 61.9588 58.95C61.9588 59.1167 61.8588 59.2667 61.6588 59.4C61.4588 59.5333 61.2255 59.65 60.9588 59.75C60.7255 59.85 60.4755 59.9333 60.2088 60C59.9755 60.0333 59.8255 60.05 59.7588 60.05C59.2921 60.05 58.8088 59.8667 58.3088 59.5C57.8088 59.1 57.3421 58.5333 56.9088 57.8C56.4755 57.0333 56.1088 56.1 55.8088 55C55.5421 53.8667 55.4088 52.5667 55.4088 51.1C55.4088 49.3667 55.6255 47.6667 56.0588 46C56.5255 44.3 57.0755 42.8 57.7088 41.5C58.3755 40.1667 59.0588 39.1 59.7588 38.3C60.4588 37.4667 61.0755 37.05 61.6088 37.05Z" fill="white"/>
</svg>
