<svg width="20" height="20" viewBox="0 0 20 20" fill="none" xmlns="http://www.w3.org/2000/svg">
<path fill-rule="evenodd" clip-rule="evenodd" d="M3.63636 0C1.62806 0 0 1.62806 0 3.63636V16.3636C0 18.3719 1.62806 20 3.63636 20H16.3636C18.3719 20 20 18.3719 20 16.3636V3.63636C20 1.62806 18.3719 0 16.3636 0H3.63636ZM3.63654 5.45508C2.63239 5.45508 1.81836 6.26911 1.81836 7.27326V16.3642C1.81836 17.3683 2.63239 18.1824 3.63654 18.1824H16.3638C17.368 18.1824 18.182 17.3683 18.182 16.3642V7.27326C18.182 6.26911 17.368 5.45508 16.3638 5.45508H3.63654Z" fill="#101010" style="fill:#101010;fill:color(display-p3 0.0642 0.0642 0.0642);fill-opacity:1;"/>
<path d="M7.27308 7.72603C7.27308 7.47499 7.47659 7.27148 7.72763 7.27148H8.63672C8.88776 7.27148 9.09126 7.47499 9.09126 7.72603V8.63512C9.09126 8.88616 8.88776 9.08967 8.63672 9.08967H7.72763C7.47659 9.08967 7.27308 8.88616 7.27308 8.63512V7.72603Z" fill="#DC6046" style="fill:#DC6046;fill:color(display-p3 0.8627 0.3765 0.2745);fill-opacity:1;"/>
<path d="M3.63672 11.3627C3.63672 11.1117 3.84023 10.9082 4.09126 10.9082H5.00035C5.25139 10.9082 5.4549 11.1117 5.4549 11.3627V12.2718C5.4549 12.5229 5.25139 12.7264 5.00036 12.7264H4.09126C3.84023 12.7264 3.63672 12.5229 3.63672 12.2718V11.3627Z" fill="#DC6046" style="fill:#DC6046;fill:color(display-p3 0.8627 0.3765 0.2745);fill-opacity:1;"/>
<path d="M3.63672 14.9995C3.63672 14.7484 3.84023 14.5449 4.09126 14.5449H5.00035C5.25139 14.5449 5.4549 14.7484 5.4549 14.9995V15.9086C5.4549 16.1596 5.25139 16.3631 5.00036 16.3631H4.09126C3.84023 16.3631 3.63672 16.1596 3.63672 15.9086V14.9995Z" fill="#DC6046" style="fill:#DC6046;fill:color(display-p3 0.8627 0.3765 0.2745);fill-opacity:1;"/>
<path d="M14.5459 11.3627C14.5459 11.1117 14.7494 10.9082 15.0004 10.9082H15.9095C16.1606 10.9082 16.3641 11.1117 16.3641 11.3627V12.2718C16.3641 12.5229 16.1606 12.7264 15.9095 12.7264H15.0004C14.7494 12.7264 14.5459 12.5229 14.5459 12.2718V11.3627Z" fill="#DC6046" style="fill:#DC6046;fill:color(display-p3 0.8627 0.3765 0.2745);fill-opacity:1;"/>
<path d="M10.9097 11.3627C10.9097 11.1117 11.1132 10.9082 11.3642 10.9082H12.2733C12.5243 10.9082 12.7278 11.1117 12.7278 11.3627V12.2718C12.7278 12.5229 12.5243 12.7264 12.2733 12.7264H11.3642C11.1132 12.7264 10.9097 12.5229 10.9097 12.2718V11.3627Z" fill="#DC6046" style="fill:#DC6046;fill:color(display-p3 0.8627 0.3765 0.2745);fill-opacity:1;"/>
<path d="M10.9094 7.72603C10.9094 7.47499 11.113 7.27148 11.364 7.27148H12.2731C12.5241 7.27148 12.7276 7.47499 12.7276 7.72603V8.63512C12.7276 8.88616 12.5241 9.08967 12.2731 9.08967H11.364C11.113 9.08967 10.9094 8.88616 10.9094 8.63512V7.72603Z" fill="#101010" style="fill:#101010;fill:color(display-p3 0.0642 0.0642 0.0642);fill-opacity:1;"/>
<path d="M7.27295 11.3627C7.27295 11.1117 7.47646 10.9082 7.72749 10.9082H8.63659C8.88762 10.9082 9.09113 11.1117 9.09113 11.3627V12.2718C9.09113 12.5229 8.88762 12.7264 8.63659 12.7264H7.7275C7.47646 12.7264 7.27295 12.5229 7.27295 12.2718V11.3627Z" fill="#101010" style="fill:#101010;fill:color(display-p3 0.0642 0.0642 0.0642);fill-opacity:1;"/>
<path d="M7.27295 14.9995C7.27295 14.7484 7.47646 14.5449 7.72749 14.5449H8.63659C8.88762 14.5449 9.09113 14.7484 9.09113 14.9995V15.9086C9.09113 16.1596 8.88762 16.3631 8.63659 16.3631H7.7275C7.47646 16.3631 7.27295 16.1596 7.27295 15.9086V14.9995Z" fill="#101010" style="fill:#101010;fill:color(display-p3 0.0642 0.0642 0.0642);fill-opacity:1;"/>
<path d="M10.9097 14.9995C10.9097 14.7484 11.1132 14.5449 11.3642 14.5449H12.2733C12.5243 14.5449 12.7278 14.7484 12.7278 14.9995V15.9086C12.7278 16.1596 12.5243 16.3631 12.2733 16.3631H11.3642C11.1132 16.3631 10.9097 16.1596 10.9097 15.9086V14.9995Z" fill="#101010" style="fill:#101010;fill:color(display-p3 0.0642 0.0642 0.0642);fill-opacity:1;"/>
<path d="M14.5458 7.72603C14.5458 7.47499 14.7493 7.27148 15.0004 7.27148H15.9094C16.1605 7.27148 16.364 7.47499 16.364 7.72603V8.63512C16.364 8.88616 16.1605 9.08967 15.9094 9.08967H15.0004C14.7493 9.08967 14.5458 8.88616 14.5458 8.63512V7.72603Z" fill="#101010" style="fill:#101010;fill:color(display-p3 0.0642 0.0642 0.0642);fill-opacity:1;"/>
</svg>
