<svg width="100" height="100" viewBox="0 0 100 100" fill="none" xmlns="http://www.w3.org/2000/svg">
<rect width="100" height="100" rx="20" fill="#FED977"/>
<path d="M41.0375 53.25C41.2042 53.25 41.3708 53.35 41.5375 53.55C41.7375 53.75 41.9042 53.9833 42.0375 54.25C42.1708 54.5167 42.2708 54.8167 42.3375 55.15C42.4375 55.45 42.4875 55.7 42.4875 55.9C42.4875 56.2667 42.3042 56.5833 41.9375 56.85C41.6042 57.1167 41.0042 57.25 40.1375 57.25C39.8708 57.25 39.5875 57.1667 39.2875 57C39.0208 56.8333 38.8875 56.5833 38.8875 56.25C38.8875 56.15 38.9542 55.95 39.0875 55.65C39.2542 55.3167 39.4375 54.9833 39.6375 54.65C39.8708 54.2833 40.1042 53.9667 40.3375 53.7C40.6042 53.4 40.8375 53.25 41.0375 53.25ZM41.7375 47.05C41.7375 47.25 41.6375 47.45 41.4375 47.65C41.2375 47.8167 41.0042 47.9833 40.7375 48.15C40.5042 48.2833 40.2708 48.4 40.0375 48.5C39.8042 48.5667 39.6708 48.6 39.6375 48.6C39.3375 48.6 39.1042 48.5333 38.9375 48.4C38.8042 48.2333 38.6875 48.0667 38.5875 47.9C38.5208 47.7 38.4708 47.5167 38.4375 47.35C38.4375 47.1833 38.4375 47.0667 38.4375 47C38.4375 46.8667 38.4708 46.7 38.5375 46.5C38.6042 46.2667 38.7042 46.05 38.8375 45.85C38.9708 45.65 39.1208 45.4833 39.2875 45.35C39.4875 45.1833 39.7042 45.1 39.9375 45.1C40.3708 45.1 40.7708 45.2833 41.1375 45.65C41.5375 46.0167 41.7375 46.4833 41.7375 47.05ZM61.0531 44C61.0531 44.5667 60.7531 45.1167 60.1531 45.65C59.5865 46.1833 58.9531 46.6833 58.2531 47.15C57.5531 47.5833 56.8865 47.95 56.2531 48.25C55.6531 48.5167 55.3031 48.6667 55.2031 48.7C54.8031 48.8667 54.6031 49.05 54.6031 49.25C54.6031 49.3833 54.7365 49.4667 55.0031 49.5C55.3031 49.5 55.8031 49.6333 56.5031 49.9C56.9031 50.0333 57.3365 50.2167 57.8031 50.45C58.2698 50.65 58.7031 50.9333 59.1031 51.3C59.5031 51.6333 59.8365 52.0667 60.1031 52.6C60.3698 53.1 60.5031 53.7167 60.5031 54.45C60.5031 55.2167 60.2198 55.95 59.6531 56.65C59.0865 57.35 58.3865 57.9667 57.5531 58.5C56.7531 59.0333 55.8698 59.4667 54.9031 59.8C53.9698 60.1 53.1198 60.25 52.3531 60.25C51.8865 60.25 51.4031 60.2167 50.9031 60.15C50.4365 60.05 49.9865 59.9167 49.5531 59.75C49.1531 59.5833 48.8198 59.3667 48.5531 59.1C48.2865 58.8333 48.1531 58.5 48.1531 58.1C48.1531 57.9 48.2198 57.65 48.3531 57.35C48.5198 57.0167 48.6865 56.7667 48.8531 56.6C49.2531 56.9667 49.7031 57.25 50.2031 57.45C50.7365 57.65 51.4031 57.75 52.2031 57.75C52.7365 57.75 53.3365 57.65 54.0031 57.45C54.7031 57.2167 55.3531 56.9333 55.9531 56.6C56.5531 56.2333 57.0531 55.8333 57.4531 55.4C57.8531 54.9333 58.0531 54.45 58.0531 53.95C58.0531 53.25 57.7031 52.75 57.0031 52.45C56.3031 52.15 55.5365 51.9 54.7031 51.7C53.8698 51.4667 53.1031 51.2167 52.4031 50.95C51.7031 50.65 51.3531 50.15 51.3531 49.45C51.3531 48.9833 51.6865 48.5167 52.3531 48.05C53.0531 47.5833 53.8198 47.1333 54.6531 46.7C55.4865 46.2667 56.2365 45.8667 56.9031 45.5C57.6031 45.1 57.9531 44.7333 57.9531 44.4C57.9531 44.1667 57.7365 44.05 57.3031 44.05C56.7698 44.05 56.1865 44.1333 55.5531 44.3C54.9198 44.4667 54.3031 44.65 53.7031 44.85C53.1365 45.05 52.6031 45.2333 52.1031 45.4C51.6365 45.5667 51.2865 45.65 51.0531 45.65C50.5865 45.65 50.2698 45.5667 50.1031 45.4C49.9698 45.2333 49.9031 44.95 49.9031 44.55C49.9031 44.3167 50.0698 44.1 50.4031 43.9C50.7365 43.6667 51.1531 43.45 51.6531 43.25C52.1865 43.05 52.7531 42.8833 53.3531 42.75C53.9865 42.5833 54.5865 42.45 55.1531 42.35C55.7198 42.2167 56.2198 42.1167 56.6531 42.05C57.1198 41.9833 57.4365 41.95 57.6031 41.95C57.8365 41.95 58.1365 41.9833 58.5031 42.05C58.9031 42.0833 59.2865 42.1833 59.6531 42.35C60.0198 42.4833 60.3365 42.6833 60.6031 42.95C60.9031 43.2167 61.0531 43.5667 61.0531 44Z" fill="white"/>
</svg>
