<svg width="100" height="100" viewBox="0 0 100 100" fill="none" xmlns="http://www.w3.org/2000/svg">
<path fill-rule="evenodd" clip-rule="evenodd" d="M60.0001 100C82.0915 100 100 82.0915 100 60.0001C100 43.7781 90.3435 29.8115 76.4651 23.5352C78.736 28.5566 80.0001 34.1307 80.0001 40.0001C80.0001 62.0915 62.0915 80.0001 40.0001 80.0001C34.1307 80.0001 28.5566 78.736 23.5352 76.4651C29.8115 90.3435 43.7781 100 60.0001 100Z" fill="#EEEEEE"/>
<path fill-rule="evenodd" clip-rule="evenodd" d="M76.465 23.535C70.1886 9.6566 56.222 0 40 0C17.9086 0 0 17.9086 0 40C0 56.222 9.65661 70.1886 23.535 76.465C21.2642 71.4435 20 65.8694 20 60C20 37.9086 37.9086 20 60 20C65.8694 20 71.4435 21.2642 76.465 23.535Z" fill="#DC6046"/>
</svg>
