<svg width="100" height="100" viewBox="0 0 100 100" fill="none" xmlns="http://www.w3.org/2000/svg">
<rect width="100" height="100" rx="20" fill="#97B4FE"/>
<path d="M44.7602 53.25C44.9268 53.25 45.0935 53.35 45.2602 53.55C45.4602 53.75 45.6268 53.9833 45.7602 54.25C45.8935 54.5167 45.9935 54.8167 46.0602 55.15C46.1602 55.45 46.2102 55.7 46.2102 55.9C46.2102 56.2667 46.0268 56.5833 45.6602 56.85C45.3268 57.1167 44.7268 57.25 43.8602 57.25C43.5935 57.25 43.3102 57.1667 43.0102 57C42.7435 56.8333 42.6102 56.5833 42.6102 56.25C42.6102 56.15 42.6768 55.95 42.8102 55.65C42.9768 55.3167 43.1602 54.9833 43.3602 54.65C43.5935 54.2833 43.8268 53.9667 44.0602 53.7C44.3268 53.4 44.5602 53.25 44.7602 53.25ZM45.4602 47.05C45.4602 47.25 45.3602 47.45 45.1602 47.65C44.9602 47.8167 44.7268 47.9833 44.4602 48.15C44.2268 48.2833 43.9935 48.4 43.7602 48.5C43.5268 48.5667 43.3935 48.6 43.3602 48.6C43.0602 48.6 42.8268 48.5333 42.6602 48.4C42.5268 48.2333 42.4102 48.0667 42.3102 47.9C42.2435 47.7 42.1935 47.5167 42.1602 47.35C42.1602 47.1833 42.1602 47.0667 42.1602 47C42.1602 46.8667 42.1935 46.7 42.2602 46.5C42.3268 46.2667 42.4268 46.05 42.5602 45.85C42.6935 45.65 42.8435 45.4833 43.0102 45.35C43.2102 45.1833 43.4268 45.1 43.6602 45.1C44.0935 45.1 44.4935 45.2833 44.8602 45.65C45.2602 46.0167 45.4602 46.4833 45.4602 47.05ZM57.7758 37.05C57.8758 37.05 58.1258 37.0833 58.5258 37.15C58.9258 37.2167 59.1258 37.3333 59.1258 37.5C59.1258 37.5667 59.0424 37.6833 58.8758 37.85C58.7091 38.0167 58.5924 38.1333 58.5258 38.2C57.8591 38.8667 57.2091 39.75 56.5758 40.85C55.9758 41.9167 55.4424 43.05 54.9758 44.25C54.5091 45.4167 54.1258 46.5833 53.8258 47.75C53.5591 48.8833 53.4258 49.8667 53.4258 50.7C53.4258 51.5667 53.5091 52.45 53.6758 53.35C53.8758 54.25 54.1258 55.0667 54.4258 55.8C54.7591 56.5333 55.1258 57.1333 55.5258 57.6C55.9591 58.0667 56.4091 58.3 56.8758 58.3C56.9758 58.3 57.0924 58.25 57.2258 58.15C57.3591 58.0167 57.4924 57.9333 57.6258 57.9C57.7924 57.9 57.9091 58.0167 57.9758 58.25C58.0758 58.4833 58.1258 58.7167 58.1258 58.95C58.1258 59.1167 58.0258 59.2667 57.8258 59.4C57.6258 59.5333 57.3924 59.65 57.1258 59.75C56.8924 59.85 56.6424 59.9333 56.3758 60C56.1424 60.0333 55.9924 60.05 55.9258 60.05C55.4591 60.05 54.9758 59.8667 54.4758 59.5C53.9758 59.1 53.5091 58.5333 53.0758 57.8C52.6424 57.0333 52.2758 56.1 51.9758 55C51.7091 53.8667 51.5758 52.5667 51.5758 51.1C51.5758 49.3667 51.7924 47.6667 52.2258 46C52.6924 44.3 53.2424 42.8 53.8758 41.5C54.5424 40.1667 55.2258 39.1 55.9258 38.3C56.6258 37.4667 57.2424 37.05 57.7758 37.05Z" fill="white"/>
</svg>
