<svg width="100" height="100" viewBox="0 0 100 100" fill="none" xmlns="http://www.w3.org/2000/svg">
<rect width="100" height="100" rx="20" fill="#FFBBAC"/>
<path d="M43.0639 53.25C43.2305 53.25 43.3972 53.35 43.5639 53.55C43.7639 53.75 43.9305 53.9833 44.0639 54.25C44.1972 54.5167 44.2972 54.8167 44.3639 55.15C44.4639 55.45 44.5139 55.7 44.5139 55.9C44.5139 56.2667 44.3305 56.5833 43.9639 56.85C43.6305 57.1167 43.0305 57.25 42.1639 57.25C41.8972 57.25 41.6139 57.1667 41.3139 57C41.0472 56.8333 40.9139 56.5833 40.9139 56.25C40.9139 56.15 40.9805 55.95 41.1139 55.65C41.2805 55.3167 41.4639 54.9833 41.6639 54.65C41.8972 54.2833 42.1305 53.9667 42.3639 53.7C42.6305 53.4 42.8639 53.25 43.0639 53.25ZM43.7639 47.05C43.7639 47.25 43.6639 47.45 43.4639 47.65C43.2639 47.8167 43.0305 47.9833 42.7639 48.15C42.5305 48.2833 42.2972 48.4 42.0639 48.5C41.8305 48.5667 41.6972 48.6 41.6639 48.6C41.3639 48.6 41.1305 48.5333 40.9639 48.4C40.8305 48.2333 40.7139 48.0667 40.6139 47.9C40.5472 47.7 40.4972 47.5167 40.4639 47.35C40.4639 47.1833 40.4639 47.0667 40.4639 47C40.4639 46.8667 40.4972 46.7 40.5639 46.5C40.6305 46.2667 40.7305 46.05 40.8639 45.85C40.9972 45.65 41.1472 45.4833 41.3139 45.35C41.5139 45.1833 41.7305 45.1 41.9639 45.1C42.3972 45.1 42.7972 45.2833 43.1639 45.65C43.5639 46.0167 43.7639 46.4833 43.7639 47.05ZM59.0795 49.5C59.0795 51.2 58.7628 52.7333 58.1295 54.1C57.5295 55.4667 56.7795 56.6333 55.8795 57.6C55.0128 58.5333 54.0795 59.25 53.0795 59.75C52.0795 60.25 51.1962 60.5 50.4295 60.5C50.1628 60.5 49.9128 60.4667 49.6795 60.4C49.4462 60.3333 49.3295 60.1333 49.3295 59.8C49.3295 59.7 49.3462 59.5667 49.3795 59.4C49.4462 59.2 49.5295 59.0333 49.6295 58.9C49.7295 58.9667 49.8962 59 50.1295 59C50.5962 59 51.1962 58.7667 51.9295 58.3C52.6628 57.8 53.3628 57.1 54.0295 56.2C54.7295 55.2667 55.3295 54.1167 55.8295 52.75C56.3295 51.3833 56.5795 49.8167 56.5795 48.05C56.5795 47.3833 56.4962 46.6667 56.3295 45.9C56.1628 45.1 55.9628 44.3333 55.7295 43.6C55.4962 42.8667 55.2462 42.2167 54.9795 41.65C54.7462 41.0833 54.5295 40.6833 54.3295 40.45C54.2295 40.35 54.1795 40.2333 54.1795 40.1C54.1795 39.9333 54.2962 39.7333 54.5295 39.5C54.7628 39.2333 55.0128 39.1 55.2795 39.1C55.5128 39.1 55.8462 39.3167 56.2795 39.75C56.7128 40.15 57.1295 40.7833 57.5295 41.65C57.9628 42.4833 58.3295 43.55 58.6295 44.85C58.9295 46.15 59.0795 47.7 59.0795 49.5Z" fill="white"/>
</svg>
