<svg width="390" height="844" viewBox="0 0 390 844" fill="none" xmlns="http://www.w3.org/2000/svg">
<rect width="390" height="844" fill="#141414"/>
<path d="M271.886 291.109V298.109H284.026V291.109H282.366V293.209H273.526V291.109H271.886ZM273.526 294.489H282.366V296.769H273.526V294.489ZM269.806 288.509V289.849H286.146V288.509H269.806ZM277.146 280.469V281.269C277.146 283.549 274.006 285.489 270.746 285.929L271.346 287.229C275.066 286.669 278.566 284.409 278.566 281.269V280.469H277.146ZM277.406 280.469V281.269C277.406 284.369 280.926 286.669 284.606 287.229L285.226 285.929C282.006 285.489 278.826 283.509 278.826 281.269V280.469H277.406ZM289.184 281.669V283.029H297.184V281.669H289.184ZM291.904 285.709V290.229H293.544V285.709H291.904ZM296.524 281.669V282.629C296.524 283.789 296.524 285.429 296.064 287.809L297.684 287.989C298.164 285.609 298.164 283.809 298.164 282.629V281.669H296.524ZM300.624 280.269V293.889H302.284V280.269H300.624ZM301.524 286.149V287.529H304.864V286.149H301.524ZM290.864 296.589V297.949H302.864V296.589H290.864ZM290.864 292.629V297.009H292.504V292.629H290.864ZM288.264 291.009C291.444 291.009 295.764 290.929 299.524 290.269L299.404 289.069C295.744 289.569 291.304 289.649 288.084 289.649L288.264 291.009ZM316.783 284.609V285.969H320.463V284.609H316.783ZM316.763 288.129V289.489H320.443V288.129H316.763ZM306.643 282.249V283.589H316.763V282.249H306.643ZM311.763 284.529C309.343 284.529 307.663 285.849 307.663 287.869C307.663 289.889 309.343 291.229 311.763 291.229C314.183 291.229 315.843 289.889 315.843 287.869C315.843 285.849 314.183 284.529 311.763 284.529ZM311.763 285.809C313.263 285.809 314.303 286.609 314.303 287.869C314.303 289.129 313.263 289.949 311.763 289.949C310.243 289.949 309.223 289.129 309.223 287.869C309.223 286.609 310.243 285.809 311.763 285.809ZM310.943 280.109V283.189H312.603V280.109H310.943ZM319.823 280.269V291.949H321.483V280.269H319.823ZM315.563 292.129C311.803 292.129 309.543 293.269 309.543 295.229C309.543 297.189 311.803 298.309 315.563 298.309C319.303 298.309 321.583 297.189 321.583 295.229C321.583 293.269 319.303 292.129 315.563 292.129ZM315.563 293.449C318.223 293.449 319.863 294.069 319.863 295.229C319.863 296.369 318.223 297.029 315.563 297.029C312.903 297.029 311.263 296.369 311.263 295.229C311.263 294.069 312.903 293.449 315.563 293.449ZM329.561 281.289V283.149C329.561 285.909 327.761 288.329 325.001 289.309L325.861 290.669C328.961 289.509 330.941 286.649 330.941 283.149V281.289H329.561ZM329.861 281.289V283.089C329.861 286.369 331.801 289.029 334.721 290.129L335.621 288.829C332.981 287.909 331.221 285.649 331.221 283.089V281.289H329.861ZM338.221 280.269V290.969H339.881V280.269H338.221ZM333.941 291.489C330.201 291.489 327.901 292.749 327.901 294.909C327.901 297.069 330.201 298.309 333.941 298.309C337.661 298.309 339.961 297.069 339.961 294.909C339.961 292.749 337.661 291.489 333.941 291.489ZM333.941 292.809C336.661 292.809 338.321 293.589 338.321 294.909C338.321 296.229 336.661 297.009 333.941 297.009C331.221 297.009 329.561 296.229 329.561 294.909C329.561 293.589 331.221 292.809 333.941 292.809ZM334.301 284.089V285.469H338.581V284.089H334.301Z" fill="#EBEBF5" fill-opacity="0.16"/>
<path d="M69.7104 180.558V185.058H71.3704V180.558H69.7104ZM70.5504 171.518C66.7304 171.518 63.9704 173.378 63.9704 176.258C63.9704 179.138 66.7304 180.998 70.5504 180.998C74.3704 180.998 77.1104 179.138 77.1104 176.258C77.1104 173.378 74.3704 171.518 70.5504 171.518ZM70.5504 172.838C73.4104 172.838 75.5104 174.198 75.5104 176.258C75.5104 178.318 73.4104 179.678 70.5504 179.678C67.6704 179.678 65.5704 178.318 65.5704 176.258C65.5704 174.198 67.6704 172.838 70.5504 172.838ZM62.3904 184.738V186.118H78.7704V184.738H62.3904ZM82.9888 174.638V175.998H95.2488V174.638H82.9888ZM80.7688 177.738V179.098H97.1688V177.738H80.7688ZM82.9888 170.598V175.258H84.6088V170.598H82.9888ZM82.8088 180.718V181.998H93.4288V183.718H82.8488V187.298H84.4888V184.958H95.0888V180.718H82.8088ZM82.8488 186.878V188.178H95.6888V186.878H82.8488ZM105.047 171.638C102.227 171.638 100.187 173.378 100.187 175.898C100.187 178.438 102.227 180.178 105.047 180.178C107.867 180.178 109.887 178.438 109.887 175.898C109.887 173.378 107.867 171.638 105.047 171.638ZM105.047 173.078C106.907 173.078 108.267 174.218 108.267 175.898C108.267 177.578 106.907 178.738 105.047 178.738C103.167 178.738 101.807 177.578 101.807 175.898C101.807 174.218 103.167 173.078 105.047 173.078ZM112.247 170.318V188.438H113.907V170.318H112.247ZM99.5073 184.478C102.727 184.478 107.147 184.458 111.207 183.678L111.067 182.458C107.127 183.078 102.567 183.098 99.2673 183.098L99.5073 184.478ZM134.278 170.318V188.438H135.958V170.318H134.278ZM135.558 177.458V178.858H138.918V177.458H135.558ZM122.818 182.538V183.938H124.238C127.638 183.938 130.018 183.838 132.798 183.318L132.618 181.918C129.918 182.418 127.578 182.538 124.238 182.538H122.818ZM122.818 172.078V183.158H124.458V173.438H131.218V172.078H122.818ZM145.257 172.038V173.498C145.257 176.038 143.417 178.378 140.697 179.298L141.557 180.618C144.577 179.518 146.637 176.778 146.637 173.498V172.038H145.257ZM145.577 172.038V173.498C145.577 176.618 147.677 179.258 150.677 180.278L151.517 178.958C148.837 178.078 146.957 175.898 146.957 173.498V172.038H145.577ZM141.137 171.598V172.938H151.037V171.598H141.137ZM153.597 170.358V180.858H155.277V170.358H153.597ZM143.597 181.838V188.178H155.277V181.838H143.597ZM153.637 183.158V186.838H145.217V183.158H153.637Z" fill="#EBEBF5" fill-opacity="0.16"/>
<path d="M291.287 544.473V545.813H296.247V544.473H291.287ZM295.487 539.473V552.773H297.147V539.473H295.487ZM285.607 555.773V557.133H297.647V555.773H285.607ZM285.607 551.433V556.353H287.267V551.433H285.607ZM287.207 540.613C284.547 540.613 282.547 542.473 282.547 545.093C282.547 547.713 284.547 549.573 287.207 549.573C289.867 549.573 291.867 547.713 291.867 545.093C291.867 542.473 289.867 540.613 287.207 540.613ZM287.207 542.073C288.947 542.073 290.267 543.313 290.267 545.093C290.267 546.873 288.947 548.113 287.207 548.113C285.447 548.113 284.147 546.873 284.147 545.093C284.147 543.313 285.447 542.073 287.207 542.073ZM305.505 540.833C302.865 540.833 301.005 543.293 301.005 547.133C301.005 550.993 302.865 553.453 305.505 553.453C308.125 553.453 310.005 550.993 310.005 547.133C310.005 543.293 308.125 540.833 305.505 540.833ZM305.505 542.333C307.245 542.333 308.425 544.213 308.425 547.133C308.425 550.073 307.245 551.993 305.505 551.993C303.765 551.993 302.585 550.073 302.585 547.133C302.585 544.213 303.765 542.333 305.505 542.333ZM313.925 539.433V557.553H315.565V539.433H313.925ZM309.465 546.333V547.693H314.645V546.333H309.465ZM327.184 550.853C323.324 550.853 320.884 552.113 320.884 554.193C320.884 556.253 323.324 557.493 327.184 557.493C331.024 557.493 333.484 556.253 333.484 554.193C333.484 552.113 331.024 550.853 327.184 550.853ZM327.184 552.153C330.024 552.153 331.824 552.933 331.824 554.193C331.824 555.433 330.024 556.213 327.184 556.213C324.344 556.213 322.524 555.433 322.524 554.193C322.524 552.933 324.344 552.153 327.184 552.153ZM321.024 540.353V541.713H332.664V540.353H321.024ZM319.084 547.873V549.213H335.404V547.873H319.084ZM325.784 544.393V548.253H327.424V544.393H325.784ZM331.704 540.353V541.893C331.704 543.313 331.704 544.633 331.204 546.493L332.844 546.693C333.324 544.813 333.324 543.353 333.324 541.893V540.353H331.704ZM337.462 550.153V551.513H353.862V550.153H337.462ZM344.782 550.793V557.533H346.422V550.793H344.782ZM339.522 540.173V547.993H351.762V540.173H350.122V542.653H341.182V540.173H339.522ZM341.182 543.993H350.122V546.653H341.182V543.993Z" fill="#EBEBF5" fill-opacity="0.16"/>
<path d="M362.722 104.024V114.464H364.382V104.024H362.722ZM363.922 108.444V109.824H367.062V108.444H363.922ZM353.022 115.344V121.864H364.382V115.344H353.022ZM362.762 116.664V120.524H354.642V116.664H362.762ZM355.402 105.084C352.682 105.084 350.682 106.844 350.682 109.364C350.682 111.864 352.682 113.604 355.402 113.604C358.122 113.604 360.122 111.864 360.122 109.364C360.122 106.844 358.122 105.084 355.402 105.084ZM355.402 106.484C357.202 106.484 358.502 107.664 358.502 109.364C358.502 111.064 357.202 112.224 355.402 112.224C353.602 112.224 352.302 111.064 352.302 109.364C352.302 107.664 353.602 106.484 355.402 106.484ZM381.92 104.024V122.104H383.58V104.024H381.92ZM376.62 105.964V106.244C376.62 111.044 374.2 114.884 368.98 117.404L369.86 118.744C375.9 115.784 378.26 111.204 378.26 105.964H376.62ZM369.8 105.964V107.324H377.34V105.964H369.8Z" fill="#EBEBF5" fill-opacity="0.16"/>
<path d="M11.7601 327.988V329.348H16.9801V327.988H11.7601ZM11.7601 331.588V332.928H17.0201V331.588H11.7601ZM16.3401 325.068V335.768H18.0001V325.068H16.3401ZM3.96014 326.428V334.468H12.2201V326.428H3.96014ZM10.5801 327.768V333.148H5.58014V327.768H10.5801ZM12.0601 336.288C8.32014 336.288 6.02014 337.548 6.02014 339.708C6.02014 341.868 8.32014 343.108 12.0601 343.108C15.7801 343.108 18.0801 341.868 18.0801 339.708C18.0801 337.548 15.7801 336.288 12.0601 336.288ZM12.0601 337.608C14.7801 337.608 16.4401 338.388 16.4401 339.708C16.4401 341.028 14.7801 341.808 12.0601 341.808C9.34014 341.808 7.68014 341.028 7.68014 339.708C7.68014 338.388 9.34014 337.608 12.0601 337.608ZM30.5386 330.088V331.428H35.4986V330.088H30.5386ZM34.7386 325.088V338.388H36.3986V325.088H34.7386ZM24.8586 341.388V342.748H36.8986V341.388H24.8586ZM24.8586 337.048V341.968H26.5186V337.048H24.8586ZM26.4586 326.228C23.7986 326.228 21.7986 328.088 21.7986 330.708C21.7986 333.328 23.7986 335.188 26.4586 335.188C29.1186 335.188 31.1186 333.328 31.1186 330.708C31.1186 328.088 29.1186 326.228 26.4586 326.228ZM26.4586 327.688C28.1986 327.688 29.5186 328.928 29.5186 330.708C29.5186 332.488 28.1986 333.728 26.4586 333.728C24.6986 333.728 23.3986 332.488 23.3986 330.708C23.3986 328.928 24.6986 327.688 26.4586 327.688Z" fill="#EBEBF5" fill-opacity="0.16"/>
<path d="M64.3631 627.001V645.121H66.0231V627.001H64.3631ZM52.2431 639.381V640.761H53.7431C56.8431 640.761 59.5631 640.641 62.8431 640.101L62.6631 638.741C59.4631 639.261 56.7631 639.381 53.7431 639.381H52.2431ZM52.2031 628.701V630.061H58.8831V633.801H52.2431V639.901H53.9031V635.161H60.5631V628.701H52.2031ZM70.3016 628.821V640.521H78.6016V628.821H70.3016ZM76.9816 630.161V639.181H71.9216V630.161H76.9816ZM81.8216 627.021V645.101H83.5016V627.021H81.8216ZM83.1016 634.241V635.641H86.4616V634.241H83.1016ZM101.14 627.041V640.241H102.82V627.041H101.14ZM91.2 643.341V644.701H103.36V643.341H91.2ZM91.2 638.881V643.801H92.84V638.881H91.2ZM93.12 628.281C90.42 628.281 88.4 630.121 88.4 632.741C88.4 635.341 90.42 637.201 93.12 637.201C95.82 637.201 97.82 635.341 97.82 632.741C97.82 630.121 95.82 628.281 93.12 628.281ZM93.12 629.721C94.88 629.721 96.22 630.961 96.22 632.741C96.22 634.501 94.88 635.741 93.12 635.741C91.36 635.741 90.02 634.501 90.02 632.741C90.02 630.961 91.36 629.721 93.12 629.721ZM108.458 635.681V637.041H120.878V635.681H108.458ZM106.398 641.281V642.661H122.778V641.281H106.398ZM108.458 628.681V636.281H110.118V630.061H120.698V628.681H108.458Z" fill="#EBEBF5" fill-opacity="0.16"/>
<path d="M158.325 380.89V408.67H162.285V380.89H158.325ZM161.385 391.72V395.05H166.305V391.72H161.385ZM140.385 385V388.18H156.555V385H140.385ZM148.515 389.74C144.465 389.74 141.465 392.5 141.465 396.37C141.465 400.24 144.465 403 148.515 403C152.565 403 155.565 400.24 155.565 396.37C155.565 392.5 152.565 389.74 148.515 389.74ZM148.515 392.98C150.405 392.98 151.755 394.24 151.755 396.37C151.755 398.5 150.405 399.76 148.515 399.76C146.625 399.76 145.275 398.5 145.275 396.37C145.275 394.24 146.625 392.98 148.515 392.98ZM146.505 381.34V386.2H150.495V381.34H146.505ZM170.982 381.76V384.94H186.312V387.07H171.042V394.27H175.092V390.04H190.362V381.76H170.982ZM171.042 392.32V395.47H191.052V392.32H171.042ZM168.102 397.51V400.72H193.272V397.51H168.102ZM178.632 398.68V408.73H182.622V398.68H178.632ZM213.52 380.89V408.67H217.48V380.89H213.52ZM216.58 391.72V395.05H221.5V391.72H216.58ZM195.58 385V388.18H211.75V385H195.58ZM203.71 389.74C199.66 389.74 196.66 392.5 196.66 396.37C196.66 400.24 199.66 403 203.71 403C207.76 403 210.76 400.24 210.76 396.37C210.76 392.5 207.76 389.74 203.71 389.74ZM203.71 392.98C205.6 392.98 206.95 394.24 206.95 396.37C206.95 398.5 205.6 399.76 203.71 399.76C201.82 399.76 200.47 398.5 200.47 396.37C200.47 394.24 201.82 392.98 203.71 392.98ZM201.7 381.34V386.2H205.69V381.34H201.7ZM244.028 391.39V394.66H248.918V391.39H244.028ZM241.058 380.86V408.64H245.078V380.86H241.058ZM224.138 383.53V400.78H228.128V383.53H224.138ZM224.138 398.56V401.86H226.538C230.618 401.86 235.088 401.62 239.678 400.66L239.258 397.39C234.788 398.29 230.498 398.56 226.538 398.56H224.138Z" fill="#DC6046"/>
<path d="M138.394 429.168V438.852H139.744V429.168H138.394ZM139.366 433.434V434.568H142.156V433.434H139.366ZM134.578 439.194C131.302 439.194 129.286 440.328 129.286 442.272C129.286 444.198 131.302 445.332 134.578 445.332C137.854 445.332 139.888 444.198 139.888 442.272C139.888 440.328 137.854 439.194 134.578 439.194ZM134.578 440.292C137.044 440.292 138.592 441.012 138.592 442.272C138.592 443.496 137.044 444.252 134.578 444.252C132.13 444.252 130.582 443.496 130.582 442.272C130.582 441.012 132.13 440.292 134.578 440.292ZM127.936 436.386V437.484H129.178C132.562 437.484 134.488 437.376 136.774 436.926L136.612 435.828C134.398 436.278 132.49 436.386 129.178 436.386H127.936ZM127.936 430.428V437.106H129.25V431.526H135.064V430.428H127.936ZM155.654 429.186V441.066H156.986V429.186H155.654ZM146.654 443.892V445.008H157.508V443.892H146.654ZM146.654 439.986V444.396H147.968V439.986H146.654ZM148.04 430.068V431.724C148.04 434.298 146.33 436.692 143.954 437.646L144.656 438.708C147.284 437.61 149.138 434.892 149.138 431.724V430.068H148.04ZM148.274 430.068V431.724C148.274 434.802 150.128 437.358 152.756 438.402L153.458 437.34C151.1 436.458 149.372 434.208 149.372 431.724V430.068H148.274ZM160.999 430.644V438.096H168.397V430.644H160.999ZM167.101 431.724V436.998H162.295V431.724H167.101ZM171.511 429.15V441.048H172.843V429.15H171.511ZM172.411 434.136V435.252H175.273V434.136H172.411ZM162.817 443.892V445.008H173.599V443.892H162.817ZM162.817 439.932V444.342H164.149V439.932H162.817ZM182.13 430.356C179.592 430.356 177.792 431.904 177.792 434.136C177.792 436.386 179.592 437.934 182.13 437.934C184.65 437.934 186.432 436.386 186.432 434.136C186.432 431.904 184.65 430.356 182.13 430.356ZM182.13 431.526C183.858 431.526 185.136 432.588 185.136 434.136C185.136 435.684 183.858 436.782 182.13 436.782C180.366 436.782 179.088 435.684 179.088 434.136C179.088 432.588 180.366 431.526 182.13 431.526ZM188.664 429.15V445.386H189.996V429.15H188.664ZM177.144 441.786C180.06 441.786 184.038 441.768 187.692 441.084L187.584 440.094C184.038 440.652 179.916 440.652 176.946 440.652L177.144 441.786ZM200.878 431.76V432.282C200.878 434.046 199.528 435.864 197.53 436.656L198.16 437.664C200.464 436.746 201.904 434.532 201.904 432.282V431.76H200.878ZM201.148 431.76V432.282C201.148 434.442 202.606 436.53 204.928 437.358L205.54 436.35C203.542 435.648 202.156 433.938 202.156 432.282V431.76H201.148ZM197.872 431.04V432.12H205.108V431.04H197.872ZM200.878 429.258V431.652H202.156V429.258H200.878ZM209.77 429.186V437.862H211.048V429.186H209.77ZM207.088 432.912V434.01H210.238V432.912H207.088ZM206.314 429.492V437.718H207.592V429.492H206.314ZM200.41 438.6V439.644H209.752V441.264H200.464V444.792H201.778V442.272H211.048V438.6H200.41ZM200.464 444.108V445.152H211.696V444.108H200.464ZM225.897 429.186V441.12H227.229V429.186H225.897ZM216.717 443.892V445.008H227.679V443.892H216.717ZM216.717 440.184V444.45H218.049V440.184H216.717ZM214.827 437.664V438.762H216.105C219.183 438.762 221.343 438.672 223.989 438.222L223.845 437.124C221.271 437.556 219.111 437.664 216.105 437.664H214.827ZM214.773 430.338V431.418H220.821V433.902H214.827V438.006H216.123V434.946H222.117V430.338H214.773ZM234.895 431.436V434.208C234.895 437.016 232.825 440.076 230.557 441.174L231.331 442.236C233.815 440.976 235.993 437.592 235.993 434.208V431.436H234.895ZM235.147 431.436V434.208C235.147 437.556 237.325 440.652 239.863 441.84L240.619 440.778C238.297 439.77 236.245 436.98 236.245 434.208V431.436H235.147ZM231.061 430.842V431.958H240.115V430.842H231.061ZM242.437 429.168V445.368H243.769V429.168H242.437ZM253.686 435.522V436.638H256.818V435.522H253.686ZM259.554 429.168V445.368H260.85V429.168H259.554ZM256.368 429.528V444.54H257.628V429.528H256.368ZM250.752 430.554C248.664 430.554 247.314 432.714 247.314 436.152C247.314 439.59 248.664 441.75 250.752 441.75C252.84 441.75 254.19 439.59 254.19 436.152C254.19 432.714 252.84 430.554 250.752 430.554ZM250.752 431.796C252.102 431.796 252.966 433.506 252.966 436.152C252.966 438.798 252.102 440.526 250.752 440.526C249.402 440.526 248.538 438.798 248.538 436.152C248.538 433.506 249.402 431.796 250.752 431.796ZM147.632 461.8V462.898H158.72V461.8H147.632ZM145.742 467.182V468.298H160.448V467.182H145.742ZM152.402 462.268V467.65H153.716V462.268H152.402ZM147.632 455.482V462.286H148.964V456.598H158.54V455.482H147.632ZM170.887 458.686V459.784H175.027V458.686H170.887ZM174.253 454.186V466.066H175.585V454.186H174.253ZM165.307 468.892V470.008H176.053V468.892H165.307ZM165.307 465.004V469.432H166.639V465.004H165.307ZM166.495 456.166V457.534C166.495 459.874 164.731 462.034 162.373 462.88L163.075 463.96C165.703 462.952 167.593 460.468 167.593 457.534V456.166H166.495ZM166.747 456.166V457.516C166.747 460.234 168.547 462.61 171.139 463.564L171.823 462.52C169.501 461.692 167.845 459.64 167.845 457.516V456.166H166.747ZM162.823 455.536V456.634H171.463V455.536H162.823ZM178.823 456.994V458.092H186.923V456.994H178.823ZM182.873 459.244C180.875 459.244 179.417 460.756 179.417 462.898C179.417 465.076 180.875 466.57 182.873 466.57C184.889 466.57 186.347 465.076 186.347 462.898C186.347 460.756 184.889 459.244 182.873 459.244ZM182.873 460.378C184.205 460.378 185.159 461.44 185.159 462.898C185.159 464.374 184.205 465.436 182.873 465.436C181.559 465.436 180.605 464.374 180.605 462.898C180.605 461.44 181.559 460.378 182.873 460.378ZM191.261 454.168V470.368H192.539V454.168H191.261ZM188.561 461.026V462.142H191.693V461.026H188.561ZM187.769 454.546V469.558H189.029V454.546H187.769ZM182.225 454.636V457.66H183.539V454.636H182.225ZM195.418 467.164V468.28H210.124V467.164H195.418ZM202.078 463.204V467.506H203.392V463.204H202.078ZM197.182 455.32V463.582H208.324V455.32H207.01V458.29H198.496V455.32H197.182ZM198.496 459.388H207.01V462.484H198.496V459.388ZM218.367 460.036V461.152H221.553V460.036H218.367ZM215.433 455.716V458.866C215.433 461.656 214.011 464.554 211.815 465.832L212.661 466.84C214.983 465.418 216.477 462.196 216.477 458.866V455.716H215.433ZM215.667 455.716V458.812C215.667 461.908 217.071 465.094 219.357 466.48L220.131 465.454C218.025 464.176 216.711 461.404 216.711 458.812V455.716H215.667ZM224.433 454.168V470.368H225.729V454.168H224.433ZM221.157 454.528V469.54H222.399V454.528H221.157ZM232.207 462.52V467.434H233.521V462.52H232.207ZM238.201 462.52V467.434H239.533V462.52H238.201ZM228.535 467.146V468.262H243.241V467.146H228.535ZM235.843 455.23C232.441 455.23 229.993 456.85 229.993 459.37C229.993 461.872 232.441 463.492 235.843 463.492C239.281 463.492 241.711 461.872 241.711 459.37C241.711 456.85 239.281 455.23 235.843 455.23ZM235.843 456.292C238.507 456.292 240.433 457.516 240.433 459.37C240.433 461.206 238.507 462.43 235.843 462.43C233.197 462.43 231.271 461.206 231.271 459.37C231.271 457.516 233.197 456.292 235.843 456.292Z" fill="#D0D0D0"/>
</svg>
