<svg width="394" height="852" viewBox="0 0 394 852" fill="none" xmlns="http://www.w3.org/2000/svg">
<g clip-path="url(#clip0_524_54755)">
<rect width="393" height="852" transform="translate(0.410912)" fill="white"/>
<path d="M160.736 351.478V379.258H164.696V351.478H160.736ZM163.796 362.308V365.638H168.716V362.308H163.796ZM142.796 355.588V358.768H158.966V355.588H142.796ZM150.926 360.328C146.876 360.328 143.876 363.088 143.876 366.958C143.876 370.828 146.876 373.588 150.926 373.588C154.976 373.588 157.976 370.828 157.976 366.958C157.976 363.088 154.976 360.328 150.926 360.328ZM150.926 363.568C152.816 363.568 154.166 364.828 154.166 366.958C154.166 369.088 152.816 370.348 150.926 370.348C149.036 370.348 147.686 369.088 147.686 366.958C147.686 364.828 149.036 363.568 150.926 363.568ZM148.916 351.928V356.788H152.906V351.928H148.916ZM173.393 352.348V355.528H188.723V357.658H173.453V364.858H177.503V360.628H192.773V352.348H173.393ZM173.453 362.908V366.058H193.463V362.908H173.453ZM170.513 368.098V371.308H195.683V368.098H170.513ZM181.043 369.268V379.318H185.033V369.268H181.043ZM215.931 351.478V379.258H219.891V351.478H215.931ZM218.991 362.308V365.638H223.911V362.308H218.991ZM197.991 355.588V358.768H214.161V355.588H197.991ZM206.121 360.328C202.071 360.328 199.071 363.088 199.071 366.958C199.071 370.828 202.071 373.588 206.121 373.588C210.171 373.588 213.171 370.828 213.171 366.958C213.171 363.088 210.171 360.328 206.121 360.328ZM206.121 363.568C208.011 363.568 209.361 364.828 209.361 366.958C209.361 369.088 208.011 370.348 206.121 370.348C204.231 370.348 202.881 369.088 202.881 366.958C202.881 364.828 204.231 363.568 206.121 363.568ZM204.111 351.928V356.788H208.101V351.928H204.111ZM246.439 361.978V365.248H251.329V361.978H246.439ZM243.469 351.448V379.228H247.489V351.448H243.469ZM226.549 354.118V371.368H230.539V354.118H226.549ZM226.549 369.148V372.448H228.949C233.029 372.448 237.499 372.208 242.089 371.248L241.669 367.978C237.199 368.878 232.909 369.148 228.949 369.148H226.549Z" fill="#DC6046"/>
<path d="M140.805 396.22V405.904H142.155V396.22H140.805ZM141.777 400.486V401.62H144.567V400.486H141.777ZM136.989 406.246C133.713 406.246 131.697 407.38 131.697 409.324C131.697 411.25 133.713 412.384 136.989 412.384C140.265 412.384 142.299 411.25 142.299 409.324C142.299 407.38 140.265 406.246 136.989 406.246ZM136.989 407.344C139.455 407.344 141.003 408.064 141.003 409.324C141.003 410.548 139.455 411.304 136.989 411.304C134.541 411.304 132.993 410.548 132.993 409.324C132.993 408.064 134.541 407.344 136.989 407.344ZM130.347 403.438V404.536H131.589C134.973 404.536 136.899 404.428 139.185 403.978L139.023 402.88C136.809 403.33 134.901 403.438 131.589 403.438H130.347ZM130.347 397.48V404.158H131.661V398.578H137.475V397.48H130.347ZM158.065 396.238V408.118H159.397V396.238H158.065ZM149.065 410.944V412.06H159.919V410.944H149.065ZM149.065 407.038V411.448H150.379V407.038H149.065ZM150.451 397.12V398.776C150.451 401.35 148.741 403.744 146.365 404.698L147.067 405.76C149.695 404.662 151.549 401.944 151.549 398.776V397.12H150.451ZM150.685 397.12V398.776C150.685 401.854 152.539 404.41 155.167 405.454L155.869 404.392C153.511 403.51 151.783 401.26 151.783 398.776V397.12H150.685ZM163.41 397.696V405.148H170.808V397.696H163.41ZM169.512 398.776V404.05H164.706V398.776H169.512ZM173.922 396.202V408.1H175.254V396.202H173.922ZM174.822 401.188V402.304H177.684V401.188H174.822ZM165.228 410.944V412.06H176.01V410.944H165.228ZM165.228 406.984V411.394H166.56V406.984H165.228ZM184.54 397.408C182.002 397.408 180.202 398.956 180.202 401.188C180.202 403.438 182.002 404.986 184.54 404.986C187.06 404.986 188.842 403.438 188.842 401.188C188.842 398.956 187.06 397.408 184.54 397.408ZM184.54 398.578C186.268 398.578 187.546 399.64 187.546 401.188C187.546 402.736 186.268 403.834 184.54 403.834C182.776 403.834 181.498 402.736 181.498 401.188C181.498 399.64 182.776 398.578 184.54 398.578ZM191.074 396.202V412.438H192.406V396.202H191.074ZM179.554 408.838C182.47 408.838 186.448 408.82 190.102 408.136L189.994 407.146C186.448 407.704 182.326 407.704 179.356 407.704L179.554 408.838ZM203.289 398.812V399.334C203.289 401.098 201.939 402.916 199.941 403.708L200.571 404.716C202.875 403.798 204.315 401.584 204.315 399.334V398.812H203.289ZM203.559 398.812V399.334C203.559 401.494 205.017 403.582 207.339 404.41L207.951 403.402C205.953 402.7 204.567 400.99 204.567 399.334V398.812H203.559ZM200.283 398.092V399.172H207.519V398.092H200.283ZM203.289 396.31V398.704H204.567V396.31H203.289ZM212.181 396.238V404.914H213.459V396.238H212.181ZM209.499 399.964V401.062H212.649V399.964H209.499ZM208.725 396.544V404.77H210.003V396.544H208.725ZM202.821 405.652V406.696H212.163V408.316H202.875V411.844H204.189V409.324H213.459V405.652H202.821ZM202.875 411.16V412.204H214.107V411.16H202.875ZM228.307 396.238V408.172H229.639V396.238H228.307ZM219.127 410.944V412.06H230.089V410.944H219.127ZM219.127 407.236V411.502H220.459V407.236H219.127ZM217.237 404.716V405.814H218.515C221.593 405.814 223.753 405.724 226.399 405.274L226.255 404.176C223.681 404.608 221.521 404.716 218.515 404.716H217.237ZM217.183 397.39V398.47H223.231V400.954H217.237V405.058H218.533V401.998H224.527V397.39H217.183ZM237.306 398.488V401.26C237.306 404.068 235.236 407.128 232.968 408.226L233.742 409.288C236.226 408.028 238.404 404.644 238.404 401.26V398.488H237.306ZM237.558 398.488V401.26C237.558 404.608 239.736 407.704 242.274 408.892L243.03 407.83C240.708 406.822 238.656 404.032 238.656 401.26V398.488H237.558ZM233.472 397.894V399.01H242.526V397.894H233.472ZM244.848 396.22V412.42H246.18V396.22H244.848ZM256.097 402.574V403.69H259.229V402.574H256.097ZM261.965 396.22V412.42H263.261V396.22H261.965ZM258.779 396.58V411.592H260.039V396.58H258.779ZM253.163 397.606C251.075 397.606 249.725 399.766 249.725 403.204C249.725 406.642 251.075 408.802 253.163 408.802C255.251 408.802 256.601 406.642 256.601 403.204C256.601 399.766 255.251 397.606 253.163 397.606ZM253.163 398.848C254.513 398.848 255.377 400.558 255.377 403.204C255.377 405.85 254.513 407.578 253.163 407.578C251.813 407.578 250.949 405.85 250.949 403.204C250.949 400.558 251.813 398.848 253.163 398.848ZM150.043 428.852V429.95H161.131V428.852H150.043ZM148.153 434.234V435.35H162.859V434.234H148.153ZM154.813 429.32V434.702H156.127V429.32H154.813ZM150.043 422.534V429.338H151.375V423.65H160.951V422.534H150.043ZM173.298 425.738V426.836H177.438V425.738H173.298ZM176.664 421.238V433.118H177.996V421.238H176.664ZM167.718 435.944V437.06H178.464V435.944H167.718ZM167.718 432.056V436.484H169.05V432.056H167.718ZM168.906 423.218V424.586C168.906 426.926 167.142 429.086 164.784 429.932L165.486 431.012C168.114 430.004 170.004 427.52 170.004 424.586V423.218H168.906ZM169.158 423.218V424.568C169.158 427.286 170.958 429.662 173.55 430.616L174.234 429.572C171.912 428.744 170.256 426.692 170.256 424.568V423.218H169.158ZM165.234 422.588V423.686H173.874V422.588H165.234ZM181.234 424.046V425.144H189.334V424.046H181.234ZM185.284 426.296C183.286 426.296 181.828 427.808 181.828 429.95C181.828 432.128 183.286 433.622 185.284 433.622C187.3 433.622 188.758 432.128 188.758 429.95C188.758 427.808 187.3 426.296 185.284 426.296ZM185.284 427.43C186.616 427.43 187.57 428.492 187.57 429.95C187.57 431.426 186.616 432.488 185.284 432.488C183.97 432.488 183.016 431.426 183.016 429.95C183.016 428.492 183.97 427.43 185.284 427.43ZM193.672 421.22V437.42H194.95V421.22H193.672ZM190.972 428.078V429.194H194.104V428.078H190.972ZM190.18 421.598V436.61H191.44V421.598H190.18ZM184.636 421.688V424.712H185.95V421.688H184.636ZM197.829 434.216V435.332H212.535V434.216H197.829ZM204.489 430.256V434.558H205.803V430.256H204.489ZM199.593 422.372V430.634H210.735V422.372H209.421V425.342H200.907V422.372H199.593ZM200.907 426.44H209.421V429.536H200.907V426.44ZM220.778 427.088V428.204H223.964V427.088H220.778ZM217.844 422.768V425.918C217.844 428.708 216.422 431.606 214.226 432.884L215.072 433.892C217.394 432.47 218.888 429.248 218.888 425.918V422.768H217.844ZM218.078 422.768V425.864C218.078 428.96 219.482 432.146 221.768 433.532L222.542 432.506C220.436 431.228 219.122 428.456 219.122 425.864V422.768H218.078ZM226.844 421.22V437.42H228.14V421.22H226.844ZM223.568 421.58V436.592H224.81V421.58H223.568ZM234.618 429.572V434.486H235.932V429.572H234.618ZM240.612 429.572V434.486H241.944V429.572H240.612ZM230.946 434.198V435.314H245.652V434.198H230.946ZM238.254 422.282C234.852 422.282 232.404 423.902 232.404 426.422C232.404 428.924 234.852 430.544 238.254 430.544C241.692 430.544 244.122 428.924 244.122 426.422C244.122 423.902 241.692 422.282 238.254 422.282ZM238.254 423.344C240.918 423.344 242.844 424.568 242.844 426.422C242.844 428.258 240.918 429.482 238.254 429.482C235.608 429.482 233.682 428.258 233.682 426.422C233.682 424.568 235.608 423.344 238.254 423.344Z" fill="#545454"/>
<path d="M272.485 291.109V298.109H284.625V291.109H282.965V293.209H274.125V291.109H272.485ZM274.125 294.489H282.965V296.769H274.125V294.489ZM270.405 288.509V289.849H286.745V288.509H270.405ZM277.745 280.469V281.269C277.745 283.549 274.605 285.489 271.345 285.929L271.945 287.229C275.665 286.669 279.165 284.409 279.165 281.269V280.469H277.745ZM278.005 280.469V281.269C278.005 284.369 281.525 286.669 285.205 287.229L285.825 285.929C282.605 285.489 279.425 283.509 279.425 281.269V280.469H278.005ZM289.784 281.669V283.029H297.784V281.669H289.784ZM292.504 285.709V290.229H294.144V285.709H292.504ZM297.124 281.669V282.629C297.124 283.789 297.124 285.429 296.664 287.809L298.284 287.989C298.764 285.609 298.764 283.809 298.764 282.629V281.669H297.124ZM301.224 280.269V293.889H302.884V280.269H301.224ZM302.124 286.149V287.529H305.464V286.149H302.124ZM291.464 296.589V297.949H303.464V296.589H291.464ZM291.464 292.629V297.009H293.104V292.629H291.464ZM288.864 291.009C292.044 291.009 296.364 290.929 300.124 290.269L300.004 289.069C296.344 289.569 291.904 289.649 288.684 289.649L288.864 291.009ZM317.382 284.609V285.969H321.062V284.609H317.382ZM317.362 288.129V289.489H321.042V288.129H317.362ZM307.242 282.249V283.589H317.362V282.249H307.242ZM312.362 284.529C309.942 284.529 308.262 285.849 308.262 287.869C308.262 289.889 309.942 291.229 312.362 291.229C314.782 291.229 316.442 289.889 316.442 287.869C316.442 285.849 314.782 284.529 312.362 284.529ZM312.362 285.809C313.862 285.809 314.902 286.609 314.902 287.869C314.902 289.129 313.862 289.949 312.362 289.949C310.842 289.949 309.822 289.129 309.822 287.869C309.822 286.609 310.842 285.809 312.362 285.809ZM311.542 280.109V283.189H313.202V280.109H311.542ZM320.422 280.269V291.949H322.082V280.269H320.422ZM316.162 292.129C312.402 292.129 310.142 293.269 310.142 295.229C310.142 297.189 312.402 298.309 316.162 298.309C319.902 298.309 322.182 297.189 322.182 295.229C322.182 293.269 319.902 292.129 316.162 292.129ZM316.162 293.449C318.822 293.449 320.462 294.069 320.462 295.229C320.462 296.369 318.822 297.029 316.162 297.029C313.502 297.029 311.862 296.369 311.862 295.229C311.862 294.069 313.502 293.449 316.162 293.449ZM330.161 281.289V283.149C330.161 285.909 328.361 288.329 325.601 289.309L326.461 290.669C329.561 289.509 331.541 286.649 331.541 283.149V281.289H330.161ZM330.461 281.289V283.089C330.461 286.369 332.401 289.029 335.321 290.129L336.221 288.829C333.581 287.909 331.821 285.649 331.821 283.089V281.289H330.461ZM338.821 280.269V290.969H340.481V280.269H338.821ZM334.541 291.489C330.801 291.489 328.501 292.749 328.501 294.909C328.501 297.069 330.801 298.309 334.541 298.309C338.261 298.309 340.561 297.069 340.561 294.909C340.561 292.749 338.261 291.489 334.541 291.489ZM334.541 292.809C337.261 292.809 338.921 293.589 338.921 294.909C338.921 296.229 337.261 297.009 334.541 297.009C331.821 297.009 330.161 296.229 330.161 294.909C330.161 293.589 331.821 292.809 334.541 292.809ZM334.901 284.089V285.469H339.181V284.089H334.901Z" fill="#D6D5D5"/>
<path d="M69.8099 180.558V185.058H71.4699V180.558H69.8099ZM70.6499 171.518C66.8299 171.518 64.0699 173.378 64.0699 176.258C64.0699 179.138 66.8299 180.998 70.6499 180.998C74.4699 180.998 77.2099 179.138 77.2099 176.258C77.2099 173.378 74.4699 171.518 70.6499 171.518ZM70.6499 172.838C73.5099 172.838 75.6099 174.198 75.6099 176.258C75.6099 178.318 73.5099 179.678 70.6499 179.678C67.7699 179.678 65.6699 178.318 65.6699 176.258C65.6699 174.198 67.7699 172.838 70.6499 172.838ZM62.4899 184.738V186.118H78.8699V184.738H62.4899ZM83.0884 174.638V175.998H95.3484V174.638H83.0884ZM80.8684 177.738V179.098H97.2684V177.738H80.8684ZM83.0884 170.598V175.258H84.7084V170.598H83.0884ZM82.9084 180.718V181.998H93.5284V183.718H82.9484V187.298H84.5884V184.958H95.1884V180.718H82.9084ZM82.9484 186.878V188.178H95.7884V186.878H82.9484ZM105.147 171.638C102.327 171.638 100.287 173.378 100.287 175.898C100.287 178.438 102.327 180.178 105.147 180.178C107.967 180.178 109.987 178.438 109.987 175.898C109.987 173.378 107.967 171.638 105.147 171.638ZM105.147 173.078C107.007 173.078 108.367 174.218 108.367 175.898C108.367 177.578 107.007 178.738 105.147 178.738C103.267 178.738 101.907 177.578 101.907 175.898C101.907 174.218 103.267 173.078 105.147 173.078ZM112.347 170.318V188.438H114.007V170.318H112.347ZM99.6068 184.478C102.827 184.478 107.247 184.458 111.307 183.678L111.167 182.458C107.227 183.078 102.667 183.098 99.3668 183.098L99.6068 184.478ZM134.378 170.318V188.438H136.058V170.318H134.378ZM135.658 177.458V178.858H139.018V177.458H135.658ZM122.918 182.538V183.938H124.338C127.738 183.938 130.118 183.838 132.898 183.318L132.718 181.918C130.018 182.418 127.678 182.538 124.338 182.538H122.918ZM122.918 172.078V183.158H124.558V173.438H131.318V172.078H122.918ZM145.356 172.038V173.498C145.356 176.038 143.516 178.378 140.796 179.298L141.656 180.618C144.676 179.518 146.736 176.778 146.736 173.498V172.038H145.356ZM145.676 172.038V173.498C145.676 176.618 147.776 179.258 150.776 180.278L151.616 178.958C148.936 178.078 147.056 175.898 147.056 173.498V172.038H145.676ZM141.236 171.598V172.938H151.136V171.598H141.236ZM153.696 170.358V180.858H155.376V170.358H153.696ZM143.696 181.838V188.178H155.376V181.838H143.696ZM153.736 183.158V186.838H145.316V183.158H153.736Z" fill="#D6D5D5"/>
<path d="M291.886 544.472V545.812H296.846V544.472H291.886ZM296.086 539.472V552.772H297.746V539.472H296.086ZM286.206 555.772V557.132H298.246V555.772H286.206ZM286.206 551.432V556.352H287.866V551.432H286.206ZM287.806 540.612C285.146 540.612 283.146 542.472 283.146 545.092C283.146 547.712 285.146 549.572 287.806 549.572C290.466 549.572 292.466 547.712 292.466 545.092C292.466 542.472 290.466 540.612 287.806 540.612ZM287.806 542.072C289.546 542.072 290.866 543.312 290.866 545.092C290.866 546.872 289.546 548.112 287.806 548.112C286.046 548.112 284.746 546.872 284.746 545.092C284.746 543.312 286.046 542.072 287.806 542.072ZM306.105 540.832C303.465 540.832 301.605 543.292 301.605 547.132C301.605 550.992 303.465 553.452 306.105 553.452C308.725 553.452 310.605 550.992 310.605 547.132C310.605 543.292 308.725 540.832 306.105 540.832ZM306.105 542.332C307.845 542.332 309.025 544.212 309.025 547.132C309.025 550.072 307.845 551.992 306.105 551.992C304.365 551.992 303.185 550.072 303.185 547.132C303.185 544.212 304.365 542.332 306.105 542.332ZM314.525 539.432V557.552H316.165V539.432H314.525ZM310.065 546.332V547.692H315.245V546.332H310.065ZM327.783 550.852C323.923 550.852 321.483 552.112 321.483 554.192C321.483 556.252 323.923 557.492 327.783 557.492C331.623 557.492 334.083 556.252 334.083 554.192C334.083 552.112 331.623 550.852 327.783 550.852ZM327.783 552.152C330.623 552.152 332.423 552.932 332.423 554.192C332.423 555.432 330.623 556.212 327.783 556.212C324.943 556.212 323.123 555.432 323.123 554.192C323.123 552.932 324.943 552.152 327.783 552.152ZM321.623 540.352V541.712H333.263V540.352H321.623ZM319.683 547.872V549.212H336.003V547.872H319.683ZM326.383 544.392V548.252H328.023V544.392H326.383ZM332.303 540.352V541.892C332.303 543.312 332.303 544.632 331.803 546.492L333.443 546.692C333.923 544.812 333.923 543.352 333.923 541.892V540.352H332.303ZM338.062 550.152V551.512H354.462V550.152H338.062ZM345.382 550.792V557.532H347.022V550.792H345.382ZM340.122 540.172V547.992H352.362V540.172H350.722V542.652H341.782V540.172H340.122ZM341.782 543.992H350.722V546.652H341.782V543.992Z" fill="#D6D5D5"/>
<path d="M363.594 104.024V114.464H365.254V104.024H363.594ZM364.794 108.444V109.824H367.934V108.444H364.794ZM353.894 115.344V121.864H365.254V115.344H353.894ZM363.634 116.664V120.524H355.514V116.664H363.634ZM356.274 105.084C353.554 105.084 351.554 106.844 351.554 109.364C351.554 111.864 353.554 113.604 356.274 113.604C358.994 113.604 360.994 111.864 360.994 109.364C360.994 106.844 358.994 105.084 356.274 105.084ZM356.274 106.484C358.074 106.484 359.374 107.664 359.374 109.364C359.374 111.064 358.074 112.224 356.274 112.224C354.474 112.224 353.174 111.064 353.174 109.364C353.174 107.664 354.474 106.484 356.274 106.484ZM382.793 104.024V122.104H384.453V104.024H382.793ZM377.493 105.964V106.244C377.493 111.044 375.073 114.884 369.853 117.404L370.733 118.744C376.773 115.784 379.133 111.204 379.133 105.964H377.493ZM370.673 105.964V107.324H378.213V105.964H370.673Z" fill="#D6D5D5"/>
<path d="M12.6325 327.988V329.348H17.8525V327.988H12.6325ZM12.6325 331.588V332.928H17.8925V331.588H12.6325ZM17.2125 325.068V335.768H18.8725V325.068H17.2125ZM4.83247 326.428V334.468H13.0925V326.428H4.83247ZM11.4525 327.768V333.148H6.45247V327.768H11.4525ZM12.9325 336.288C9.19247 336.288 6.89247 337.548 6.89247 339.708C6.89247 341.868 9.19247 343.108 12.9325 343.108C16.6525 343.108 18.9525 341.868 18.9525 339.708C18.9525 337.548 16.6525 336.288 12.9325 336.288ZM12.9325 337.608C15.6525 337.608 17.3125 338.388 17.3125 339.708C17.3125 341.028 15.6525 341.808 12.9325 341.808C10.2125 341.808 8.55247 341.028 8.55247 339.708C8.55247 338.388 10.2125 337.608 12.9325 337.608ZM31.4109 330.088V331.428H36.3709V330.088H31.4109ZM35.6109 325.088V338.388H37.2709V325.088H35.6109ZM25.7309 341.388V342.748H37.7709V341.388H25.7309ZM25.7309 337.048V341.968H27.3909V337.048H25.7309ZM27.3309 326.228C24.6709 326.228 22.6709 328.088 22.6709 330.708C22.6709 333.328 24.6709 335.188 27.3309 335.188C29.9909 335.188 31.9909 333.328 31.9909 330.708C31.9909 328.088 29.9909 326.228 27.3309 326.228ZM27.3309 327.688C29.0709 327.688 30.3909 328.928 30.3909 330.708C30.3909 332.488 29.0709 333.728 27.3309 333.728C25.5709 333.728 24.2709 332.488 24.2709 330.708C24.2709 328.928 25.5709 327.688 27.3309 327.688Z" fill="#D6D5D5"/>
<path d="M64.9626 627.001V645.121H66.6226V627.001H64.9626ZM52.8426 639.381V640.761H54.3426C57.4426 640.761 60.1626 640.641 63.4426 640.101L63.2626 638.741C60.0626 639.261 57.3626 639.381 54.3426 639.381H52.8426ZM52.8026 628.701V630.061H59.4826V633.801H52.8426V639.901H54.5026V635.161H61.1626V628.701H52.8026ZM70.901 628.821V640.521H79.201V628.821H70.901ZM77.581 630.161V639.181H72.521V630.161H77.581ZM82.421 627.021V645.101H84.101V627.021H82.421ZM83.701 634.241V635.641H87.061V634.241H83.701ZM101.739 627.041V640.241H103.419V627.041H101.739ZM91.7995 643.341V644.701H103.959V643.341H91.7995ZM91.7995 638.881V643.801H93.4395V638.881H91.7995ZM93.7195 628.281C91.0195 628.281 88.9995 630.121 88.9995 632.741C88.9995 635.341 91.0195 637.201 93.7195 637.201C96.4195 637.201 98.4195 635.341 98.4195 632.741C98.4195 630.121 96.4195 628.281 93.7195 628.281ZM93.7195 629.721C95.4795 629.721 96.8195 630.961 96.8195 632.741C96.8195 634.501 95.4795 635.741 93.7195 635.741C91.9595 635.741 90.6195 634.501 90.6195 632.741C90.6195 630.961 91.9595 629.721 93.7195 629.721ZM109.058 635.681V637.041H121.478V635.681H109.058ZM106.998 641.281V642.661H123.378V641.281H106.998ZM109.058 628.681V636.281H110.718V630.061H121.298V628.681H109.058Z" fill="#D6D5D5"/>
</g>
<defs>
<clipPath id="clip0_524_54755">
<rect width="393" height="852" fill="white" transform="translate(0.410912)"/>
</clipPath>
</defs>
</svg>
