<svg width="100" height="100" viewBox="0 0 100 100" fill="none" xmlns="http://www.w3.org/2000/svg">
<rect width="100" height="100" rx="20" fill="#ACDE80"/>
<path d="M41.8061 53.25C41.9727 53.25 42.1394 53.35 42.3061 53.55C42.5061 53.75 42.6727 53.9833 42.8061 54.25C42.9394 54.5167 43.0394 54.8167 43.1061 55.15C43.2061 55.45 43.2561 55.7 43.2561 55.9C43.2561 56.2667 43.0727 56.5833 42.7061 56.85C42.3727 57.1167 41.7727 57.25 40.9061 57.25C40.6394 57.25 40.3561 57.1667 40.0561 57C39.7894 56.8333 39.6561 56.5833 39.6561 56.25C39.6561 56.15 39.7227 55.95 39.8561 55.65C40.0227 55.3167 40.2061 54.9833 40.4061 54.65C40.6394 54.2833 40.8727 53.9667 41.1061 53.7C41.3727 53.4 41.6061 53.25 41.8061 53.25ZM42.5061 47.05C42.5061 47.25 42.4061 47.45 42.2061 47.65C42.0061 47.8167 41.7727 47.9833 41.5061 48.15C41.2727 48.2833 41.0394 48.4 40.8061 48.5C40.5727 48.5667 40.4394 48.6 40.4061 48.6C40.1061 48.6 39.8727 48.5333 39.7061 48.4C39.5727 48.2333 39.4561 48.0667 39.3561 47.9C39.2894 47.7 39.2394 47.5167 39.2061 47.35C39.2061 47.1833 39.2061 47.0667 39.2061 47C39.2061 46.8667 39.2394 46.7 39.3061 46.5C39.3727 46.2667 39.4727 46.05 39.6061 45.85C39.7394 45.65 39.8894 45.4833 40.0561 45.35C40.2561 45.1833 40.4727 45.1 40.7061 45.1C41.1394 45.1 41.5394 45.2833 41.9061 45.65C42.3061 46.0167 42.5061 46.4833 42.5061 47.05ZM61.6217 37.3C61.6217 39.4667 61.355 41.3667 60.8217 43C60.3217 44.6333 59.7383 46.0833 59.0717 47.35C58.4383 48.5833 57.805 49.7 57.1717 50.7C56.5717 51.6667 56.1717 52.6 55.9717 53.5C55.805 54.1 55.4383 54.4 54.8717 54.4C54.805 54.4 54.755 54.4 54.7217 54.4C54.6883 54.3667 54.6383 54.35 54.5717 54.35C54.805 54.9167 55.155 55.5667 55.6217 56.3C56.0883 57 56.555 57.7167 57.0217 58.45C57.4883 59.1833 57.8883 59.9 58.2217 60.6C58.5883 61.3 58.7717 61.9 58.7717 62.4C58.7717 62.6667 58.5883 62.9167 58.2217 63.15C57.8883 63.4167 57.5883 63.55 57.3217 63.55C57.1883 63.55 57.0883 63.4667 57.0217 63.3C56.6883 62.1 56.0717 60.8167 55.1717 59.45C54.2717 58.0833 53.3383 56.55 52.3717 54.85C51.4383 53.15 50.605 51.2333 49.8717 49.1C49.1383 46.9667 48.7717 44.55 48.7717 41.85C48.7717 40.7167 48.8217 39.7667 48.9217 39C49.055 38.2 49.405 37.8 49.9717 37.8C50.305 37.8 50.5383 37.9 50.6717 38.1C50.805 38.3 50.8717 38.5167 50.8717 38.75C50.8717 41.7833 51.155 44.45 51.7217 46.75C52.2883 49.05 52.9217 50.8333 53.6217 52.1L54.4717 50.8C55.3383 49.4667 56.0883 48.3 56.7217 47.3C57.355 46.2667 57.8717 45.2667 58.2717 44.3C58.6717 43.3 58.955 42.2833 59.1217 41.25C59.3217 40.2167 59.4217 39.0167 59.4217 37.65C59.4217 37.2833 59.3717 36.8833 59.2717 36.45C59.205 36.0167 59.0717 35.6333 58.8717 35.3C58.705 34.9333 58.4883 34.6333 58.2217 34.4C57.955 34.1667 57.6217 34.05 57.2217 34.05C56.6883 34.05 55.8717 34.2 54.7717 34.5C53.705 34.8 52.605 35.2 51.4717 35.7C50.3383 36.2 49.305 36.7667 48.3717 37.4C47.4383 38 46.8717 38.6167 46.6717 39.25C46.6383 39.3167 46.5883 39.4 46.5217 39.5C46.455 39.6 46.3883 39.65 46.3217 39.65C46.0883 39.65 45.8383 39.4667 45.5717 39.1C45.305 38.7333 45.1717 38.4167 45.1717 38.15C45.1717 37.55 45.4383 36.9667 45.9717 36.4C46.505 35.8333 47.1717 35.3167 47.9717 34.85C48.805 34.3833 49.7217 33.9667 50.7217 33.6C51.7217 33.2 52.6883 32.8833 53.6217 32.65C54.555 32.3833 55.3883 32.1833 56.1217 32.05C56.8883 31.8833 57.4383 31.8 57.7717 31.8C58.305 31.8 58.805 31.95 59.2717 32.25C59.7717 32.55 60.1883 32.95 60.5217 33.45C60.855 33.95 61.1217 34.5333 61.3217 35.2C61.5217 35.8667 61.6217 36.5667 61.6217 37.3Z" fill="white"/>
</svg>
